{"accessors":[{"bufferView":0,"byteOffset":0,"componentType":5126,"count":1,"max":[0],"min":[0],"normalized":false,"type":"SCALAR"},{"bufferView":1,"byteOffset":0,"componentType":5126,"count":1,"max":[373,960,0],"min":[373,960,0],"normalized":false,"type":"VEC3"},{"bufferView":2,"byteOffset":0,"componentType":5126,"count":4,"max":[6],"min":[0.133332997560501],"normalized":false,"type":"SCALAR"},{"bufferView":3,"byteOffset":0,"componentType":5126,"count":4,"max":[373,960,0],"min":[373,444,0],"normalized":false,"type":"VEC3"},{"bufferView":4,"byteOffset":0,"componentType":5126,"count":1,"max":[0],"min":[0],"normalized":false,"type":"SCALAR"},{"bufferView":5,"byteOffset":0,"componentType":5126,"count":1,"max":[2932,953,0],"min":[2932,953,0],"normalized":false,"type":"VEC3"},{"bufferView":6,"byteOffset":0,"componentType":5126,"count":4,"max":[6.03332996368408],"min":[0.100000001490116],"normalized":false,"type":"SCALAR"},{"bufferView":7,"byteOffset":0,"componentType":5126,"count":4,"max":[2932,953,0],"min":[2932,437,0],"normalized":false,"type":"VEC3"}],"animations":[{"channels":[{"sampler":0,"target":{"node":188,"path":"translation"}}],"name":"RESET5","samplers":[{"input":0,"interpolation":"LINEAR","output":1}]},{"channels":[{"sampler":0,"target":{"node":188,"path":"translation"}}],"name":"UpDown","samplers":[{"input":2,"interpolation":"LINEAR","output":3}]},{"channels":[{"sampler":0,"target":{"node":192,"path":"translation"}}],"name":"RESET6","samplers":[{"input":4,"interpolation":"LINEAR","output":5}]},{"channels":[{"sampler":0,"target":{"node":192,"path":"translation"}}],"name":"UpDown2","samplers":[{"input":6,"interpolation":"LINEAR","output":7}]}],"asset":{"generator":"Godot Engine v4.3.stable.official@77dcf97d82cbfe4e4615475fa52ca03da645dbd8","version":"2.0"},"bufferViews":[{"buffer":0,"byteLength":4,"byteOffset":0},{"buffer":0,"byteLength":12,"byteOffset":4},{"buffer":0,"byteLength":16,"byteOffset":16},{"buffer":0,"byteLength":48,"byteOffset":32},{"buffer":0,"byteLength":4,"byteOffset":80},{"buffer":0,"byteLength":12,"byteOffset":84},{"buffer":0,"byteLength":16,"byteOffset":96},{"buffer":0,"byteLength":48,"byteOffset":112}],"buffers":[{"byteLength":160,"uri":"final0.bin"}],"extensionsUsed":["GODOT_single_root"],"nodes":[{"children":[1,12,17,119,131,143,166,168,170,173,177,178,183,188,192,196,199,202],"name":"final"},{"children":[2,4,6,8,10],"name":"ParallaxBackground"},{"children":[3],"name":"City"},{"name":"TextureRect"},{"children":[5],"name":"Midvoid"},{"name":"TextureRect2"},{"children":[7],"name":"Midvoid2"},{"name":"TextureRect3"},{"children":[9],"name":"Midvoid3"},{"name":"TextureRect4"},{"children":[11],"name":"Void"},{"name":"TextureRect5"},{"children":[13,14,15],"name":"Player"},{"name":"AnimatedSprite2D"},{"name":"CollisionShape2D"},{"children":[16],"name":"Camera2D2"},{"name":"HBoxContainer"},{"children":[18,21,24,27,30,33,36,39,42,45,48,51,54,57,60,63,66,70,74,75,76,79,82,85,88,91,94,97,100,103,106,109,114],"name":"Decor"},{"children":[19,20],"name":"PinkBrick"},{"name":"CollisionShape2D2"},{"name":"Sprite2D"},{"children":[22,23],"name":"PinkBrick2"},{"name":"CollisionShape2D3"},{"name":"Sprite2D2"},{"children":[25,26],"name":"PinkBrick3"},{"name":"CollisionShape2D4"},{"name":"Sprite2D3"},{"children":[28,29],"name":"PinkBrick4"},{"name":"CollisionShape2D5"},{"name":"Sprite2D4"},{"children":[31,32],"name":"PinkBrick5"},{"name":"CollisionShape2D6"},{"name":"Sprite2D5"},{"children":[34,35],"name":"PinkBrick6"},{"name":"CollisionShape2D7"},{"name":"Sprite2D6"},{"children":[37,38],"name":"PinkBrick7"},{"name":"CollisionShape2D8"},{"name":"Sprite2D7"},{"children":[40,41],"name":"PinkBrick8"},{"name":"CollisionShape2D9"},{"name":"Sprite2D8"},{"children":[43,44],"name":"PinkBrick22"},{"name":"CollisionShape2D10"},{"name":"Sprite2D9"},{"children":[46,47],"name":"PinkBrick23"},{"name":"CollisionShape2D11"},{"name":"Sprite2D10"},{"children":[49,50],"name":"PinkBrick24"},{"name":"CollisionShape2D12"},{"name":"Sprite2D11"},{"children":[52,53],"name":"PinkBrick21"},{"name":"CollisionShape2D13"},{"name":"Sprite2D12"},{"children":[55,56],"name":"PinkBrick17"},{"name":"CollisionShape2D14"},{"name":"Sprite2D13"},{"children":[58,59],"name":"PinkBrick18"},{"name":"CollisionShape2D15"},{"name":"Sprite2D14"},{"children":[61,62],"name":"PinkBrick19"},{"name":"CollisionShape2D16"},{"name":"Sprite2D15"},{"children":[64,65],"name":"PinkBrick16"},{"name":"CollisionShape2D17"},{"name":"Sprite2D16"},{"children":[67,68,69],"name":"PinkBrick15"},{"name":"CollisionShape2D18"},{"name":"Sprite2D17"},{"name":"Tree2"},{"children":[71,72,73],"name":"PinkBrick20"},{"name":"CollisionShape2D19"},{"name":"Sprite2D18"},{"name":"Tree22"},{"name":"Tree4"},{"name":"Tree7"},{"children":[77,78],"name":"PinkBrick9"},{"name":"CollisionShape2D20"},{"name":"Sprite2D19"},{"children":[80,81],"name":"PinkBrick10"},{"name":"CollisionShape2D21"},{"name":"Sprite2D20"},{"children":[83,84],"name":"PinkBrick11"},{"name":"CollisionShape2D22"},{"name":"Sprite2D21"},{"children":[86,87],"name":"PinkBrick12"},{"name":"CollisionShape2D23"},{"name":"Sprite2D22"},{"children":[89,90],"name":"PinkBrick13"},{"name":"CollisionShape2D24"},{"name":"Sprite2D23"},{"children":[92,93],"name":"PinkBrick14"},{"name":"CollisionShape2D25"},{"name":"Sprite2D24"},{"children":[95,96],"name":"Tree"},{"name":"Tree23"},{"name":"Tree3"},{"children":[98,99],"name":"Tree24"},{"name":"Tree25"},{"name":"Tree32"},{"children":[101,102],"name":"Tree33"},{"name":"Tree26"},{"name":"Tree34"},{"children":[104,105],"name":"Tree6"},{"name":"Tree27"},{"name":"Tree35"},{"children":[107,108],"name":"Tree5"},{"name":"Tree28"},{"name":"Tree36"},{"children":[110,111,112],"name":"PinkGoop6"},{"name":"PinkGoop"},{"name":"Collision"},{"children":[113],"name":"danger"},{"name":"CollisionShape2D26"},{"children":[115,116,117],"name":"PinkGoop7"},{"name":"PinkGoop2"},{"name":"Collision2"},{"children":[118],"name":"danger2"},{"name":"CollisionShape2D27"},{"children":[120,121,122,123,124,125,126,127,129],"name":"GodMaus"},{"name":"Sprite2D25"},{"name":"CollisionShape2D28"},{"name":"AnimationPlayer"},{"name":"RayCast2D"},{"name":"RayCast2D2"},{"name":"RayCast2D3"},{"name":"RayCast2D4"},{"children":[128],"name":"danger3"},{"name":"CollisionShape2D29"},{"children":[130],"name":"mause_area"},{"name":"CollisionShape2D210"},{"children":[132,133,134,135,136,137,138,139,141],"name":"GodMaus2"},{"name":"Sprite2D26"},{"name":"CollisionShape2D30"},{"name":"AnimationPlayer2"},{"name":"RayCast2D5"},{"name":"RayCast2D22"},{"name":"RayCast2D32"},{"name":"RayCast2D42"},{"children":[140],"name":"danger4"},{"name":"CollisionShape2D31"},{"children":[142],"name":"mause_area2"},{"name":"CollisionShape2D211"},{"children":[144,145,146,147,148,149,150,151,152,153,154,155,156,157,158,159,160,161,162,163,164,165],"name":"Lines"},{"name":"Line1"},{"name":"Line2"},{"name":"Line3"},{"name":"Line4_Q1"},{"name":"Line4"},{"name":"Line5_Q2"},{"name":"Line5"},{"name":"Line6_Q3"},{"name":"Line7_Q4"},{"name":"Line8_Q5"},{"name":"Line9_Q6"},{"name":"Line9"},{"name":"Line10_Q7"},{"name":"Line10"},{"name":"Line11_Q8"},{"name":"Line11"},{"name":"Line12_Q9"},{"name":"Line12"},{"name":"Line 13"},{"name":"Line 14"},{"name":"WRONG"},{"name":"RIGHT"},{"children":[167],"name":"TriggerL1"},{"name":"CollisionShape2D32"},{"children":[169],"name":"TriggerL2"},{"name":"CollisionShape2D33"},{"children":[171,172],"name":"LeftBorder"},{"name":"LeftBorder2"},{"name":"Collision3"},{"children":[174,176],"name":"void"},{"children":[175],"name":"StaticBody2D"},{"name":"CollisionShape2D212"},{"name":"CollisionShape2D34"},{"name":"Next Level"},{"children":[179,181],"name":"Heal2"},{"children":[180],"name":"Sprite2D27"},{"name":"AnimationPlayer3"},{"children":[182],"name":"Area2D"},{"name":"CollisionShape2D35"},{"children":[184,186],"name":"Heal3"},{"children":[185],"name":"Sprite2D28"},{"name":"AnimationPlayer4"},{"children":[187],"name":"Area2D2"},{"name":"CollisionShape2D36"},{"children":[189,190,191],"name":"MovingPlank"},{"name":"Sprite2D29"},{"name":"CollisionShape2D37"},{"name":"AnimationPlayer5"},{"children":[193,194,195],"name":"MovingPlank2"},{"name":"Sprite2D30"},{"name":"CollisionShape2D38"},{"name":"AnimationPlayer6"},{"children":[197,198],"name":"MovingPlank3"},{"name":"Sprite2D31"},{"name":"CollisionShape2D39"},{"children":[200,201],"name":"MovingPlank4"},{"name":"Sprite2D32"},{"name":"CollisionShape2D40"},{"name":"LineEdit"}],"scene":0,"scenes":[{"nodes":[0]}]}